<?xml version="1.0" standalone="no"?>
<!DOCTYPE svg PUBLIC "-//W3C//DTD SVG 20010904//EN"
    "http://www.w3.org/TR/2001/REC-SVG-20010904/DTD/svg10.dtd">
<svg version="1.0" xmlns="http://www.w3.org/2000/svg"
     width="514.000000pt"
     height="773.000000pt"
     viewBox="0 0 514.000000 773.000000"
     preserveAspectRatio="xMidYMid meet">

    <g transform="translate(0.000000,773.000000) scale(0.100000,-0.100000)"
       fill="#fff" stroke="none">
        <path d="M2994 7695 c-295 -67 -533 -304 -598 -592 -21 -93 -21 -253 0 -346
33 -148 121 -297 238 -403 150 -137 321 -204 526 -204 449 0 804 374 777 819
-7 123 -26 194 -82 306 -96 196 -263 336 -480 405 -90 28 -289 36 -381 15z"/>
        <path d="M1105 6313 c-176 -9 -267 -56 -313 -163 -11 -25 -188 -508 -393
-1075 -346 -954 -373 -1035 -374 -1095 0 -102 51 -199 128 -244 23 -14 181
-82 352 -152 345 -142 392 -153 493 -120 57 19 135 83 159 130 9 17 141 402
294 856 152 454 328 974 389 1155 100 292 113 338 113 400 2 120 -59 222 -160
272 -53 25 -66 27 -207 30 -329 7 -433 8 -481 6z"/>
        <path d="M2585 6024 c-141 -17 -229 -59 -318 -153 -72 -77 -130 -181 -180
-326 -47 -136 -67 -225 -211 -925 -69 -333 -163 -778 -209 -990 -47 -212 -88
-407 -92 -435 -3 -27 -49 -265 -101 -528 l-96 -478 -581 -732 c-349 -438 -594
-756 -612 -792 -27 -53 -30 -69 -30 -150 0 -78 4 -98 29 -153 75 -163 273
-256 442 -208 125 36 110 20 782 875 342 434 633 813 647 841 18 35 54 180
121 487 52 241 96 438 97 440 2 1 66 -82 144 -185 77 -103 238 -316 356 -473
l217 -286 39 -774 c36 -709 41 -779 60 -831 56 -148 186 -238 346 -238 168 0
307 103 357 264 l21 70 -22 435 c-60 1160 -69 1295 -85 1339 -19 53 11 11
-396 551 l-339 450 130 613 c71 337 141 669 155 738 15 69 29 128 33 132 4 5
74 -87 156 -204 83 -116 170 -229 195 -250 33 -28 180 -103 505 -257 l460
-218 3 -1777 2 -1776 140 0 140 0 2 1737 3 1737 31 8 c62 16 126 69 162 135
83 153 35 303 -123 384 l-65 34 0 503 0 502 -140 0 -140 0 0 -430 c0 -236 -3
-430 -6 -430 -3 0 -113 50 -243 111 -130 61 -265 124 -301 141 l-65 30 -370
514 c-203 284 -392 551 -418 595 -119 195 -269 300 -471 328 -76 11 -101 11
-161 5z"/>
    </g>
</svg>
